# xmcd
#
# Track frame offsets:
#	150
#	21795
#	38307
#	68175
#	93242
#	113062
#	133140
#	153680
#	180365
#	201630
#
# Disc length: 2978 seconds
#
# Revision: 0
# Processed by: cddbd v1.5.1PL0 Copyright (c) Steve Scherf et al.
# Submitted via: dBpowerAMP V4.0
#
DISCID=810ba00a
DTITLE=Blue moon Junction - Bring it on home
DYEAR=1900
DGENRE=Blues
TTITLE0=Shine
TTITLE1=Find your way
TTITLE2=Drop of salvation
TTITLE3=Big city small town
TTITLE4=Precious thing
TTITLE5=Ride thatmile
TTITLE6=Serpent sleeping
TTITLE7=Before sunrise
TTITLE8=Loverstuck (young and wasted)
TTITLE9=Bring it on home
EXTD=
EXTT0=
EXTT1=
EXTT2=
EXTT3=
EXTT4=
EXTT5=
EXTT6=
EXTT7=
EXTT8=
EXTT9=
PLAYORDER=
